# xmcd CD database file
#
# Track frame offsets:
#	150
#	15094
#	32118
#	51480
#	68542
#	82943
#	97821
#	112732
#	127457
#	145762
#
# Disc length: 2165 seconds
#
# Revision: 1
# Processed by: cddbd v1.5.2PL0 Copyright (c) Steve Scherf et al.
# Submitted via: CDex 1.95
#
DISCID=7608730a
DTITLE=Rich O'Toole - Seventeen
DYEAR=2006
DGENRE=Country
TTITLE0=Kelly Comes To Town
TTITLE1=Queen of the Misfits
TTITLE2=Alone
TTITLE3=Just My Luck
TTITLE4=Robert E. Lee
TTITLE5=Cleveland
TTITLE6=Everything's Legal 
TTITLE7=Texas Blues
TTITLE8=Pancho Villa
TTITLE9=Summertime
EXTD=YEAR: 2006
EXTT0=
EXTT1=
EXTT2=
EXTT3=
EXTT4=
EXTT5=
EXTT6=
EXTT7=
EXTT8=
EXTT9=
PLAYORDER=
